<mxfile host="app.diagrams.net" modified="2023-10-13T06:44:43.128Z" agent="Mozilla/5.0 (Windows NT 10.0; Win64; x64) AppleWebKit/537.36 (KHTML, like Gecko) Chrome/116.0.0.0 Safari/537.36" etag="JDCUm09Q2bGtZMiWXw_b" version="22.0.4" type="device">
  <diagram id="R2lEEEUBdFMjLlhIrx00" name="Page-1">
    <mxGraphModel dx="885" dy="588" grid="1" gridSize="10" guides="1" tooltips="1" connect="1" arrows="1" fold="1" page="1" pageScale="1" pageWidth="850" pageHeight="1100" math="0" shadow="0" extFonts="Permanent Marker^https://fonts.googleapis.com/css?family=Permanent+Marker">
      <root>
        <mxCell id="0" />
        <mxCell id="1" parent="0" />
        <mxCell id="3a-Hv6OvQc2V3tip11x3-7" value="" style="ellipse;whiteSpace=wrap;html=1;" vertex="1" parent="1">
          <mxGeometry x="580" y="175" width="135" height="90" as="geometry" />
        </mxCell>
        <mxCell id="3a-Hv6OvQc2V3tip11x3-1" value="&lt;font style=&quot;font-size: 24px;&quot;&gt;員工&lt;/font&gt;" style="rounded=0;whiteSpace=wrap;html=1;" vertex="1" parent="1">
          <mxGeometry x="365" y="230" width="120" height="60" as="geometry" />
        </mxCell>
        <mxCell id="3a-Hv6OvQc2V3tip11x3-2" value="&lt;font style=&quot;font-size: 24px;&quot;&gt;&lt;u&gt;編號&lt;/u&gt;&lt;/font&gt;" style="ellipse;whiteSpace=wrap;html=1;" vertex="1" parent="1">
          <mxGeometry x="140" y="180" width="120" height="80" as="geometry" />
        </mxCell>
        <mxCell id="3a-Hv6OvQc2V3tip11x3-3" value="&lt;font style=&quot;font-size: 24px;&quot;&gt;姓名&lt;/font&gt;" style="ellipse;whiteSpace=wrap;html=1;" vertex="1" parent="1">
          <mxGeometry x="365" y="90" width="120" height="80" as="geometry" />
        </mxCell>
        <mxCell id="3a-Hv6OvQc2V3tip11x3-4" value="&lt;font style=&quot;font-size: 24px;&quot;&gt;電話&lt;/font&gt;" style="ellipse;whiteSpace=wrap;html=1;" vertex="1" parent="1">
          <mxGeometry x="587.5" y="180" width="120" height="80" as="geometry" />
        </mxCell>
        <mxCell id="3a-Hv6OvQc2V3tip11x3-5" value="&lt;font style=&quot;font-size: 24px;&quot;&gt;年齡&lt;/font&gt;" style="ellipse;whiteSpace=wrap;html=1;dashed=1;" vertex="1" parent="1">
          <mxGeometry x="200" y="320" width="120" height="80" as="geometry" />
        </mxCell>
        <mxCell id="3a-Hv6OvQc2V3tip11x3-6" value="&lt;font style=&quot;font-size: 24px;&quot;&gt;地址&lt;/font&gt;" style="ellipse;whiteSpace=wrap;html=1;" vertex="1" parent="1">
          <mxGeometry x="490" y="320" width="120" height="80" as="geometry" />
        </mxCell>
        <mxCell id="3a-Hv6OvQc2V3tip11x3-11" value="&lt;font style=&quot;font-size: 24px;&quot;&gt;路名&lt;/font&gt;" style="ellipse;whiteSpace=wrap;html=1;" vertex="1" parent="1">
          <mxGeometry x="640" y="490" width="90" height="60" as="geometry" />
        </mxCell>
        <mxCell id="3a-Hv6OvQc2V3tip11x3-12" value="&lt;font style=&quot;font-size: 24px;&quot;&gt;區域&lt;/font&gt;" style="ellipse;whiteSpace=wrap;html=1;" vertex="1" parent="1">
          <mxGeometry x="530" y="490" width="90" height="60" as="geometry" />
        </mxCell>
        <mxCell id="3a-Hv6OvQc2V3tip11x3-13" value="&lt;font style=&quot;font-size: 24px;&quot;&gt;縣市&lt;/font&gt;" style="ellipse;whiteSpace=wrap;html=1;" vertex="1" parent="1">
          <mxGeometry x="395" y="490" width="90" height="60" as="geometry" />
        </mxCell>
        <mxCell id="3a-Hv6OvQc2V3tip11x3-15" value="" style="endArrow=none;html=1;rounded=0;entryX=0;entryY=1;entryDx=0;entryDy=0;exitX=0.5;exitY=0;exitDx=0;exitDy=0;" edge="1" parent="1" source="3a-Hv6OvQc2V3tip11x3-13" target="3a-Hv6OvQc2V3tip11x3-6">
          <mxGeometry width="50" height="50" relative="1" as="geometry">
            <mxPoint x="400" y="410" as="sourcePoint" />
            <mxPoint x="450" y="360" as="targetPoint" />
          </mxGeometry>
        </mxCell>
        <mxCell id="3a-Hv6OvQc2V3tip11x3-16" value="" style="endArrow=none;html=1;rounded=0;entryX=0.5;entryY=1;entryDx=0;entryDy=0;exitX=0.5;exitY=0;exitDx=0;exitDy=0;" edge="1" parent="1" source="3a-Hv6OvQc2V3tip11x3-12" target="3a-Hv6OvQc2V3tip11x3-6">
          <mxGeometry width="50" height="50" relative="1" as="geometry">
            <mxPoint x="400" y="410" as="sourcePoint" />
            <mxPoint x="450" y="360" as="targetPoint" />
          </mxGeometry>
        </mxCell>
        <mxCell id="3a-Hv6OvQc2V3tip11x3-17" value="" style="endArrow=none;html=1;rounded=0;entryX=1;entryY=1;entryDx=0;entryDy=0;exitX=0.5;exitY=0;exitDx=0;exitDy=0;" edge="1" parent="1" source="3a-Hv6OvQc2V3tip11x3-11" target="3a-Hv6OvQc2V3tip11x3-6">
          <mxGeometry width="50" height="50" relative="1" as="geometry">
            <mxPoint x="400" y="410" as="sourcePoint" />
            <mxPoint x="450" y="360" as="targetPoint" />
          </mxGeometry>
        </mxCell>
      </root>
    </mxGraphModel>
  </diagram>
</mxfile>
